P2
3 4 10 
1  3  5
2  3  5
5  6  7
10 9  7 
